<?xml version="1.0" standalone="no"?>
<svg xmlns="http://www.w3.org/2000/svg" viewBox="0 0 117.236 135.373" width="117.236" height="135.373"><polygon fill="none" stroke="#ffffff" stroke-width="3" points="115.736,34.59325 115.736,100.77974999999999 58.618,133.873 1.5,100.77974999999999 1.5,34.59325 58.618,1.5"></polygon><g fill="#000000" color="#000000" transform="translate(36.618 31.71849999999999) scale(0.88)"><svg width="50.0" height="50.0" x="0.0" y="0.0" viewBox="0 0 50 50"><path fill="currentColor" fill-rule="nonzero" d="M23.16.25v22.52H.65v26.61h26.61V26.86h22.52V.25H23.16zm0 45.03H4.74V26.86h18.42v18.42zm22.52-22.52H27.25V4.34h18.42v18.42h.01zM31.35 8.43h10.23v10.23H31.35V8.43zM8.83 30.95h10.23v10.23H8.83V30.95z"></path></svg></g><path fill="#000000" fill-rule="nonzero" d="M10.00 0Q14.28 0 16.77 2.14Q19.26 4.28 19.26 8.26L19.26 8.26L13.36 8.26Q13.36 6.58 12.47 5.60Q11.59 4.62 9.97 4.62L9.97 4.62Q8.09 4.62 7.21 5.80Q6.33 6.97 6.33 9.07L6.33 9.07L6.33 10.86Q6.33 12.94 7.21 14.13Q8.09 15.32 9.91 15.32L9.91 15.32Q11.70 15.32 12.63 14.39Q13.55 13.47 13.55 11.79L13.55 11.79L19.26 11.79Q19.26 15.74 16.84 17.84Q14.42 19.94 10.00 19.94L10.00 19.94Q5.07 19.94 2.53 17.42Q0 14.90 0 9.97L0 9.97Q0 5.04 2.53 2.52Q5.07 0 10.00 0L10.00 0ZM31.78 0Q36.06 0 38.56 2.14Q41.05 4.28 41.05 8.26L41.05 8.26L35.14 8.26Q35.14 6.58 34.26 5.60Q33.38 4.62 31.75 4.62L31.75 4.62Q29.88 4.62 28.99 5.80Q28.11 6.97 28.11 9.07L28.11 9.07L28.11 10.86Q28.11 12.94 28.99 14.13Q29.88 15.32 31.70 15.32L31.70 15.32Q33.49 15.32 34.41 14.39Q35.34 13.47 35.34 11.79L35.34 11.79L41.05 11.79Q41.05 15.74 38.63 17.84Q36.20 19.94 31.78 19.94L31.78 19.94Q26.85 19.94 24.32 17.42Q21.78 14.90 21.78 9.97L21.78 9.97Q21.78 5.04 24.32 2.52Q26.85 0 31.78 0L31.78 0ZM44.38 19.60L44.38 0.34L50.57 0.34L50.57 14.67L60.45 14.67L60.45 19.60L44.38 19.60ZM82.24 19.60L76.05 19.60L76.05 12.29L69.24 12.29L69.24 19.60L63.06 19.60L63.06 0.34L69.24 0.34L69.24 7.36L76.05 7.36L76.05 0.34L82.24 0.34L82.24 19.60Z" transform="translate(17.501, 83.719)"></path></svg>